<svg width="38" height="38" viewBox="0 0 38 38" fill="none" xmlns="http://www.w3.org/2000/svg">
<path d="M19 0C8.52381 0 0 8.52381 0 19C0 29.4762 8.52381 38 19 38C29.4762 38 38 29.4762 38 19C38 8.52381 29.4762 0 19 0ZM29.619 14L17.4762 26.0476C16.7619 26.7619 15.619 26.8095 14.8571 26.0952L8.42857 20.2381C7.66667 19.5238 7.61905 18.3333 8.28571 17.5714C9 16.8095 10.1905 16.7619 10.9524 17.4762L16.0476 22.1429L26.9048 11.2857C27.6667 10.5238 28.8571 10.5238 29.619 11.2857C30.381 12.0476 30.381 13.2381 29.619 14Z" fill="white"/>
</svg>
