<svg width="38" height="38" viewBox="0 0 38 38" fill="none" xmlns="http://www.w3.org/2000/svg">
<path d="M0 14.25V33.25C0 34.5616 1.06327 35.625 2.375 35.625H9.5V11.875H2.375C1.06327 11.875 0 12.9383 0 14.25Z" fill="white"/>
<path d="M33.6141 14.2498H26.5982C25.9847 14.2498 25.6774 13.8405 25.5742 13.6642C25.471 13.4891 25.2622 13.0217 25.5591 12.486L28.0327 8.03169C28.5754 7.05641 28.631 5.9095 28.1869 4.8855C27.7427 3.86036 26.866 3.11701 25.7817 2.84681L24.0376 2.41077C23.6131 2.30408 23.1632 2.43977 22.8675 2.76795L13.3976 13.2885C12.4154 14.382 11.875 15.7922 11.875 17.2603V29.6873C11.875 32.9611 14.5388 35.6248 17.8125 35.6248L29.626 35.6237C32.2933 35.6237 34.6486 33.8273 35.3525 31.2563L37.8875 19.6225C37.9617 19.299 38 18.9673 38 18.6357C38 16.2178 36.032 14.2498 33.6141 14.2498L33.6141 14.2498Z" fill="white"/>
</svg>
