<svg width="38" height="38" viewBox="0 0 38 38" fill="none" xmlns="http://www.w3.org/2000/svg">
<path d="M19 0C8.52298 0 0 8.52298 0 19C0 29.477 8.52298 38 19 38C29.477 38 38 29.477 38 19C38 8.52298 29.477 0 19 0ZM28.0361 28.8276C27.7274 29.1364 27.3221 29.2918 26.9168 29.2918C26.5115 29.2918 26.1059 29.1364 25.7974 28.8276L17.8806 20.9111C17.5829 20.6151 17.4168 20.2127 17.4168 19.7918V9.5C17.4168 8.62445 18.1259 7.91676 19 7.91676C19.8741 7.91676 20.5832 8.62445 20.5832 9.5V19.1363L28.0361 26.5889C28.6551 27.2081 28.6551 28.2086 28.0361 28.8276Z" fill="white"/>
</svg>
