<svg width="38" height="38" viewBox="0 0 38 38" fill="none" xmlns="http://www.w3.org/2000/svg">
<g clip-path="url(#clip0_102_106)">
<path d="M37.2571 9.5267L19.3704 3.2158C19.1308 3.13119 18.8693 3.13119 18.6297 3.2158L0.742931 9.5267C0.298212 9.68359 0.00059464 10.1037 8.89662e-07 10.5753C-0.00059286 11.0468 0.296059 11.4676 0.740407 11.6255L18.6271 17.9844C18.7477 18.0273 18.8739 18.0487 19 18.0487C19.1262 18.0487 19.2523 18.0273 19.3729 17.9844L37.2596 11.6255C37.7039 11.4676 38.0005 11.0468 38 10.5753C37.9994 10.1037 37.7018 9.68359 37.2571 9.5267Z" fill="white"/>
<path d="M35.3257 24.3866V14.6758L33.0991 15.4673V24.3866C32.4285 24.7726 31.9766 25.4958 31.9766 26.3252C31.9766 27.1545 32.4285 27.8779 33.0991 28.2639V33.735C33.0991 34.3498 33.5976 34.8483 34.2124 34.8483C34.8272 34.8483 35.3257 34.3498 35.3257 33.735V28.264C35.9963 27.878 36.4482 27.1546 36.4482 26.3253C36.4482 25.4959 35.9964 24.7726 35.3257 24.3866Z" fill="white"/>
<path d="M19.0002 20.2746C18.6181 20.2746 18.2417 20.2096 17.8816 20.0816L7.82617 16.5068V21.4059C7.82617 22.6044 9.07653 23.618 11.5425 24.4184C13.692 25.1161 16.3405 25.5003 19.0002 25.5003C21.66 25.5003 24.3084 25.1161 26.458 24.4184C28.924 23.618 30.1743 22.6044 30.1743 21.4059V16.5068L20.119 20.0816C19.7588 20.2096 19.3824 20.2746 19.0002 20.2746Z" fill="white"/>
</g>
<defs>
<clipPath id="clip0_102_106">
<rect width="38" height="38" fill="white"/>
</clipPath>
</defs>
</svg>
