<svg width="65" height="57" viewBox="0 0 65 57" fill="none" xmlns="http://www.w3.org/2000/svg">
<path d="M61.9833 10.9921H50.3052V6.85086C50.3052 3.50793 47.5853 0.788086 44.2424 0.788086H20.6921C17.349 0.788086 14.6292 3.50793 14.6292 6.85086V10.9921H3.01666C1.35332 10.9921 0 12.3454 0 14.0087V53.1955C0 54.859 1.35332 56.2122 3.01666 56.2122H61.9833C63.6468 56.2122 65 54.8588 65 53.1955V14.0087C65 12.3454 63.6467 10.9921 61.9833 10.9921ZM16.5547 6.85086C16.5547 4.56964 18.4107 2.71371 20.6921 2.71371H44.2423C46.5235 2.71371 48.3796 4.56964 48.3796 6.85086V10.9683H45.3695V6.85086C45.3695 6.23984 44.8533 5.72364 44.2423 5.72364H20.6921C20.0811 5.72364 19.5649 6.23984 19.5649 6.85086V10.9683H16.5547V6.85086ZM43.4441 7.64927V10.9921H21.4904V7.64927H43.4441ZM1.9255 14.0087C1.9255 13.4071 2.41503 12.9176 3.01666 12.9176H9.06407C8.62215 16.6406 5.6536 19.5982 1.9255 20.023V14.0087ZM3.01666 54.2865C2.41503 54.2865 1.9255 53.797 1.9255 53.1954V47.0463C5.68242 47.4922 8.66176 50.5106 9.04376 54.2865H3.01666ZM63.0745 53.1954C63.0745 53.797 62.5848 54.2865 61.9833 54.2865H55.4737C55.8718 50.3501 59.0924 47.2361 63.0744 47.0026V53.1954H63.0745ZM63.0745 45.0739C58.0304 45.3125 53.9508 49.2876 53.5431 54.2864H10.9743C10.5798 49.4481 6.7454 45.5693 1.92563 45.1088V21.9585C6.71658 21.519 10.5443 17.7035 11.0016 12.9174H53.5161C53.9886 17.8632 58.0601 21.7731 63.0746 21.9914V45.0739H63.0745ZM63.0745 20.0649C59.1225 19.8516 55.9143 16.8001 55.4535 12.9177H61.9833C62.5848 12.9177 63.0745 13.4072 63.0745 14.0089V20.0649Z" fill="#5374CA"/>
</svg>
